<svg width="168" height="42" viewBox="0 0 168 42" fill="none" xmlns="http://www.w3.org/2000/svg">
<path d="M38.4305 12.3509L29.6419 3.56948C24.8826 -1.18983 17.1102 -1.18983 12.3509 3.56948L3.56948 12.3509C-1.18983 17.1102 -1.18983 24.8898 3.56948 29.6491L12.3509 38.4305C17.1102 43.1898 24.8826 43.1898 29.6419 38.4305L38.4305 29.6491C43.1898 24.8898 43.1898 17.1102 38.4305 12.3509ZM15.8435 33.9002H15.7862C15.0849 33.9002 14.5123 33.3563 14.4837 32.6549C14.4694 32.3114 14.591 31.975 14.8272 31.7245C15.0634 31.4741 15.3854 31.3238 15.729 31.3023C16.4447 31.2665 17.053 31.8319 17.0816 32.5476C17.1102 33.2704 16.552 33.8716 15.8363 33.9002H15.8435ZM31.4526 28.4753C29.6705 31.3094 27.3159 33.2991 25.1617 33.8C25.1546 33.8 25.1331 33.8 25.1045 33.8143C24.7108 33.8859 24.3172 33.9217 23.9522 33.9217C22.5566 33.9217 21.5761 33.3921 20.8819 32.9341C20.1877 32.476 19.5436 31.8677 18.9567 31.1162C15.2423 26.3497 14.9918 17.4037 14.9703 16.4017C14.9346 14.0256 15.2709 10.7979 17.1317 8.95144C18.0406 8.05683 19.1786 7.59879 20.5098 7.59879H20.7245C22.0628 7.59879 23.2007 8.05683 24.1025 8.95144C25.9561 10.7979 26.2997 14.0256 26.2639 16.4017C26.2281 18.878 25.77 23.6802 23.2007 27.9887C22.9932 28.3394 22.6139 28.5541 22.1988 28.5541C21.9912 28.5541 21.7837 28.4968 21.6048 28.3966C21.0537 28.0674 20.8676 27.3446 21.204 26.7935C23.0003 23.7804 23.8735 20.4668 23.9379 16.3588C23.9808 13.632 23.4584 11.5923 22.4707 10.6047C22.0127 10.1466 21.433 9.91761 20.7245 9.91761H20.5241C19.8084 9.91761 19.2358 10.1395 18.7778 10.6047C17.783 11.5923 17.2605 13.6392 17.3035 16.3588C17.3607 19.7153 18.1551 26.2925 20.796 29.6848C21.2254 30.2288 21.6835 30.6725 22.163 30.9874C22.6282 31.2951 23.1578 31.5957 23.9665 31.5957C24.1884 31.5957 24.4246 31.5743 24.6679 31.5313C26.1851 31.1663 28.0817 29.4845 29.4845 27.2444C29.6992 26.9008 30.0713 26.6933 30.4793 26.6933C30.694 26.6933 30.9158 26.7577 31.0947 26.8722C31.3595 27.0368 31.5385 27.2945 31.61 27.6022C31.6816 27.9028 31.6244 28.2177 31.4597 28.4825L31.4526 28.4753Z" fill="#F6F5F3"/>
<path d="M113.8 26.41C120.69 24.88 128.59 19.37 128.59 9.02002H113.6V10.9H124.54C124.48 15.47 121.09 22.39 112.58 24.77L113.8 26.41Z" fill="#F6F5F3"/>
<path d="M136.06 8H131.98V34.2H136.06V8Z" fill="#F6F5F3"/>
<path d="M134.66 17.94V16.05H140.3V17.94H134.66Z" fill="#F6F5F3"/>
<path d="M113.6 17.35V15.47H124.85V17.35H113.6Z" fill="#F6F5F3"/>
<path d="M148.83 20.82C148.31 20.82 147.9 20.4 147.9 19.88V10.89H164.61V9.01001H143.86V20.83C143.86 21.86 144.7 22.7 145.72 22.7H164.93V20.82H148.84H148.83Z" fill="#F6F5F3"/>
<path d="M141.63 30.66V28.78H167.17V30.66H141.63Z" fill="#F6F5F3"/>
<path d="M107.27 8.03003H103.36V34.2H107.27V8.03003Z" fill="#F6F5F3"/>
<path d="M78.58 23.74V21.85H67.79V18.8H63.73V21.85H53V23.74H78.58Z" fill="#F6F5F3"/>
<path d="M59.2304 14.81H76.0404V8.46997H55.1904V10.35H72.0004V12.92H55.1904V17.4C55.1904 18.43 56.0304 19.28 57.0604 19.28H76.3904V17.41H60.1704C59.6504 17.41 59.2304 16.99 59.2304 16.46V14.82V14.81Z" fill="#F6F5F3"/>
<path d="M88.4502 24.87C87.9302 24.87 87.5002 24.45 87.5002 23.92V10.89H94.6502V9.01004H83.4502V24.88C83.4502 25.91 84.2902 26.76 85.3302 26.76H94.0202C95.3402 26.76 96.4102 26.53 97.1002 26.09V34.21H101.02V8.04004H97.1002V16.42H92.2002V18.75H97.1002V24.29C96.1402 24.67 95.2902 24.87 94.0202 24.87H88.4502Z" fill="#F6F5F3"/>
<path d="M67.8996 24.9399H63.3596C62.1596 29.9099 56.2596 32.2199 54.0996 32.5299L55.2296 34.1999C57.4396 33.9299 62.4696 32.3299 65.6296 28.8899C68.7796 32.3299 73.8196 33.9299 76.0296 34.1999L77.1596 32.5299C74.9996 32.2099 69.0996 29.9099 67.8996 24.9399Z" fill="#F6F5F3"/>
</svg>
