<svg width="161" height="51" viewBox="0 0 161 51" fill="none" xmlns="http://www.w3.org/2000/svg">
<path d="M46.5979 14.9758L35.9415 4.32808C30.1707 -1.44269 20.7466 -1.44269 14.9758 4.32808L4.32808 14.9758C-1.44269 20.7466 -1.44269 30.1794 4.32808 35.9502L14.9758 46.5979C20.7466 52.3686 30.1707 52.3686 35.9415 46.5979L46.5979 35.9502C52.3686 30.1794 52.3686 20.7466 46.5979 14.9758ZM19.2106 41.1048H19.1412C18.2907 41.1048 17.5965 40.4453 17.5618 39.5949C17.5444 39.1783 17.692 38.7705 17.9783 38.4667C18.2647 38.163 18.6552 37.9808 19.0717 37.9547C19.9395 37.9114 20.6771 38.5969 20.7119 39.4647C20.7466 40.3411 20.0697 41.0701 19.2019 41.1048H19.2106ZM38.137 34.527C35.9762 37.9634 33.1212 40.3759 30.5091 40.9833C30.5005 40.9833 30.4744 40.9833 30.4397 41.0007C29.9624 41.0874 29.4852 41.1308 29.0426 41.1308C27.3504 41.1308 26.1615 40.4887 25.3198 39.9333C24.478 39.3779 23.697 38.6403 22.9854 37.7291C18.4816 31.9497 18.1779 21.1024 18.1519 19.8875C18.1085 17.0064 18.5164 13.0927 20.7726 10.8538C21.8747 9.76909 23.2545 9.21371 24.8685 9.21371H25.1289C26.7516 9.21371 28.1314 9.76909 29.2248 10.8538C31.4724 13.0927 31.8889 17.0064 31.8455 19.8875C31.8021 22.89 31.2468 28.7128 28.1314 33.9369C27.8798 34.3621 27.4198 34.6224 26.9165 34.6224C26.6649 34.6224 26.4132 34.553 26.1963 34.4315C25.5281 34.0324 25.3024 33.1559 25.7103 32.4877C27.8884 28.8343 28.9471 24.8165 29.0252 19.8354C29.0773 16.5291 28.4438 14.0559 27.2463 12.8584C26.6909 12.303 25.988 12.0253 25.1289 12.0253H24.8859C24.0181 12.0253 23.3239 12.2943 22.7685 12.8584C21.5623 14.0559 20.9288 16.5378 20.9809 19.8354C21.0503 23.9053 22.0135 31.8802 25.2157 35.9935C25.7363 36.6531 26.2917 37.1911 26.8731 37.5729C27.4372 37.9461 28.0793 38.3105 29.0599 38.3105C29.329 38.3105 29.6153 38.2845 29.9104 38.2324C31.7501 37.7899 34.0497 35.7506 35.7506 33.0344C36.0109 32.6179 36.4621 32.3662 36.9568 32.3662C37.2171 32.3662 37.4861 32.4443 37.7031 32.5832C38.0242 32.7827 38.2411 33.0951 38.3279 33.4683C38.4147 33.8328 38.3452 34.2146 38.1457 34.5357L38.137 34.527Z" fill="#2C2A26"/>
<g clip-path="url(#clip0_367_941)">
<path d="M114.687 30.0669C120.666 28.7391 127.522 23.9576 127.522 14.9761H114.514V16.6075H124.007C123.955 20.5733 121.013 26.5784 113.628 28.6437L114.687 30.0669Z" fill="#2C2A26"/>
<path d="M134.004 14.0908H130.463V36.8268H134.004V14.0908Z" fill="#2C2A26"/>
<path d="M132.789 22.7168V21.0767H137.683V22.7168H132.789Z" fill="#2C2A26"/>
<path d="M114.514 22.2047V20.5732H124.276V22.2047H114.514Z" fill="#2C2A26"/>
<path d="M145.085 25.2158C144.634 25.2158 144.278 24.8514 144.278 24.4001V16.5987H158.779V14.9673H140.772V25.2245C140.772 26.1183 141.501 26.8473 142.387 26.8473H159.057V25.2158H145.094H145.085Z" fill="#2C2A26"/>
<path d="M138.837 33.755V32.1235H161.001V33.755H138.837Z" fill="#2C2A26"/>
<path d="M109.02 14.1167H105.627V36.8266H109.02V14.1167Z" fill="#2C2A26"/>
<path d="M84.1237 27.7497V26.1096H74.7603V23.4629H71.2371V26.1096H61.9258V27.7497H84.1237Z" fill="#2C2A26"/>
<path d="M67.332 20.0003H81.9195V14.4985H63.8262V16.13H78.4136V18.3602H63.8262V22.2479C63.8262 23.1417 64.5551 23.8793 65.4489 23.8793H82.2232V22.2565H68.1477C67.6965 22.2565 67.332 21.8921 67.332 21.4321V20.009V20.0003Z" fill="#2C2A26"/>
<path d="M92.689 28.7303C92.2378 28.7303 91.8646 28.3658 91.8646 27.9059V16.5987H98.0693V14.9672H88.3501V28.739C88.3501 29.6328 89.079 30.3704 89.9815 30.3704H97.5226C98.6681 30.3704 99.5966 30.1708 100.195 29.789V36.8354H103.597V14.1255H100.195V21.3975H95.9432V23.4195H100.195V28.227C99.3623 28.5567 98.6247 28.7303 97.5226 28.7303H92.689Z" fill="#2C2A26"/>
<path d="M74.8558 28.791H70.9161C69.8747 33.1039 64.7548 35.1085 62.8804 35.3775L63.861 36.8267C65.7788 36.5924 70.1437 35.2039 72.8859 32.2188C75.6195 35.2039 79.9931 36.5924 81.9109 36.8267L82.8915 35.3775C81.0171 35.0998 75.8971 33.1039 74.8558 28.791Z" fill="#2C2A26"/>
</g>
<defs>
<clipPath id="clip0_367_941">
<rect width="99.0753" height="34.7447" fill="white" transform="translate(61.9258 8.09082)"/>
</clipPath>
</defs>
</svg>
